<svg xmlns="http://www.w3.org/2000/svg" width="46.912" height="46.912" viewBox="0 0 46.912 46.912">
  <g id="company" transform="translate(0)">
    <path id="Path_408" data-name="Path 408" d="M89.463,60.231h3.665a.916.916,0,0,0,.916-.916v-4.4A.916.916,0,0,0,93.128,54H89.463a.916.916,0,0,0-.916.916v4.4A.916.916,0,0,0,89.463,60.231Zm.916-4.4h1.833V58.4H90.379Zm0,0" transform="translate(-80.434 -49.052)" fill="#28292c"/>
    <path id="Path_409" data-name="Path 409" d="M169.463,60.231h3.665a.916.916,0,0,0,.916-.916v-4.4a.916.916,0,0,0-.916-.916h-3.665a.916.916,0,0,0-.916.916v4.4A.916.916,0,0,0,169.463,60.231Zm.916-4.4h1.833V58.4h-1.833Zm0,0" transform="translate(-153.104 -49.052)" fill="#28292c"/>
    <path id="Path_410" data-name="Path 410" d="M249.463,60.231h3.665a.916.916,0,0,0,.916-.916v-4.4a.916.916,0,0,0-.916-.916h-3.665a.916.916,0,0,0-.916.916v4.4A.916.916,0,0,0,249.463,60.231Zm.916-4.4h1.833V58.4h-1.833Zm0,0" transform="translate(-225.774 -49.052)" fill="#28292c"/>
    <path id="Path_411" data-name="Path 411" d="M88.547,147.314a.916.916,0,0,0,.916.916h3.665a.916.916,0,0,0,.916-.916v-4.4a.916.916,0,0,0-.916-.916H89.463a.916.916,0,0,0-.916.916Zm1.833-3.482h1.833V146.4H90.379Zm0,0" transform="translate(-80.434 -128.989)" fill="#28292c"/>
    <path id="Path_412" data-name="Path 412" d="M168.547,147.314a.916.916,0,0,0,.916.916h3.665a.916.916,0,0,0,.916-.916v-4.4a.916.916,0,0,0-.916-.916h-3.665a.916.916,0,0,0-.916.916Zm1.833-3.482h1.833V146.4h-1.833Zm0,0" transform="translate(-153.104 -128.989)" fill="#28292c"/>
    <path id="Path_413" data-name="Path 413" d="M88.547,235.314a.916.916,0,0,0,.916.916h3.665a.916.916,0,0,0,.916-.916v-4.4a.916.916,0,0,0-.916-.916H89.463a.916.916,0,0,0-.916.916Zm1.833-3.482h1.833V234.4H90.379Zm0,0" transform="translate(-80.434 -208.926)" fill="#28292c"/>
    <path id="Path_414" data-name="Path 414" d="M168.547,235.314a.916.916,0,0,0,.916.916h3.665a.916.916,0,0,0,.916-.916v-4.4a.916.916,0,0,0-.916-.916h-3.665a.916.916,0,0,0-.916.916Zm1.833-3.482h1.833V234.4h-1.833Zm0,0" transform="translate(-153.104 -208.926)" fill="#28292c"/>
    <path id="Path_415" data-name="Path 415" d="M41.048,41.415a4.6,4.6,0,0,0-1.5.253,6.2,6.2,0,0,0-3.63-1.881V35.8a6.826,6.826,0,1,0,7.7-11.244A8.692,8.692,0,0,0,35,14.781a8.654,8.654,0,0,0-2.433.347V.916A.916.916,0,0,0,31.652,0H4.531a.916.916,0,0,0-.916.916V17.592a.916.916,0,1,0,1.833,0V1.833H30.736V15.9a8.754,8.754,0,0,0-2.465,2.08V13.927a.916.916,0,0,0-.916-.916H23.689a.916.916,0,0,0-.916.916v4.4a.916.916,0,0,0,.916.916h3.665c.021,0,.041,0,.061,0a8.648,8.648,0,0,0-.766,1.836h-2.96a.916.916,0,0,0-.916.916v4.4a.916.916,0,0,0,.916.916h.146a6.812,6.812,0,0,0-.743,2.932H10.629a.916.916,0,0,0-.916.916v9.529H5.447V24.922a.916.916,0,0,0-1.833,0v15.76H.916A.916.916,0,0,0,0,41.6V46a.916.916,0,0,0,.916.916h43.8A.916.916,0,0,0,45.629,46,4.586,4.586,0,0,0,41.048,41.415ZM26.438,17.409H24.606V14.843h1.833ZM24.372,34.37v6.312h-5.5V32.069H23.3A6.8,6.8,0,0,0,24.372,34.37ZM26.2,36.12a6.788,6.788,0,0,0,3.714,1.1,6.669,6.669,0,0,0,.817-.052v3.511H26.2Zm6.364.56a6.915,6.915,0,0,0,1.516-.884v3.991a6.229,6.229,0,0,0-1.516.423ZM35,16.613a6.861,6.861,0,0,1,6.713,8.248.916.916,0,0,0,.505,1.014,5,5,0,1,1-6.3,7.275V30.7l3.376-3.376a.916.916,0,0,0-1.3-1.3l-2.08,2.08V23.9a.916.916,0,1,0-1.833,0v2.228l-1.563-1.563a.916.916,0,0,0-1.3,1.3l2.859,2.859v1.607h0V33.15a5,5,0,1,1-6.3-7.275.917.917,0,0,0,.505-1.014A6.859,6.859,0,0,1,35,16.613Zm-10.4,6.293h1.727c-.012.186-.019.373-.019.561a8.772,8.772,0,0,0,.067,1.084,6.792,6.792,0,0,0-1.191.92h-.584ZM11.545,32.069h5.5v8.613h-5.5ZM1.833,42.514H29.782a6.234,6.234,0,0,0-.99,2.566H1.833ZM35,45.08H30.652a4.444,4.444,0,0,1,7.9-1.749.917.917,0,0,0,1.173.253,2.75,2.75,0,0,1,3.91,1.5Zm0,0" fill="#28292c"/>
    <path id="Path_416" data-name="Path 416" d="M40.365,223.833a.917.917,0,1,0-.648-.268A.924.924,0,0,0,40.365,223.833Zm0,0" transform="translate(-35.835 -201.659)" fill="#28292c"/>
  </g>
</svg>
