<svg id="user_1_" data-name="user (1)" xmlns="http://www.w3.org/2000/svg" width="39" height="46.745" viewBox="0 0 39 46.745">
  <path id="Path_344" data-name="Path 344" d="M98.29,22.518a10.9,10.9,0,0,0,7.961-3.3,10.9,10.9,0,0,0,3.3-7.961,10.9,10.9,0,0,0-3.3-7.961,11.256,11.256,0,0,0-15.921,0,10.894,10.894,0,0,0-3.3,7.96,10.9,10.9,0,0,0,3.3,7.961A10.9,10.9,0,0,0,98.29,22.518ZM92.267,5.235a8.517,8.517,0,0,1,12.047,0,8.14,8.14,0,0,1,2.5,6.023,8.139,8.139,0,0,1-2.5,6.024,8.516,8.516,0,0,1-12.047,0,8.138,8.138,0,0,1-2.5-6.024A8.139,8.139,0,0,1,92.267,5.235Zm0,0" transform="translate(-79.085 0)" fill="#28292c"/>
  <path id="Path_345" data-name="Path 345" d="M38.905,260.681a27.811,27.811,0,0,0-.379-2.954,23.272,23.272,0,0,0-.726-2.97,14.67,14.67,0,0,0-1.221-2.77,10.44,10.44,0,0,0-1.841-2.4,8.117,8.117,0,0,0-2.644-1.662,9.139,9.139,0,0,0-3.376-.611,3.427,3.427,0,0,0-1.83.776c-.549.358-1.19.771-1.906,1.229a10.923,10.923,0,0,1-2.467,1.087,9.578,9.578,0,0,1-6.034,0,10.89,10.89,0,0,1-2.465-1.086c-.709-.453-1.351-.867-1.908-1.23a3.423,3.423,0,0,0-1.829-.776,9.128,9.128,0,0,0-3.376.612,8.11,8.11,0,0,0-2.645,1.662,10.443,10.443,0,0,0-1.84,2.4,14.7,14.7,0,0,0-1.221,2.77,23.328,23.328,0,0,0-.726,2.969,27.62,27.62,0,0,0-.379,2.955C.031,261.575,0,262.5,0,263.443a7.762,7.762,0,0,0,2.305,5.872,8.3,8.3,0,0,0,5.941,2.167H30.754a8.3,8.3,0,0,0,5.94-2.167A7.759,7.759,0,0,0,39,263.443C39,262.5,38.968,261.572,38.905,260.681Zm-4.1,6.649a5.587,5.587,0,0,1-4.052,1.412H8.246a5.587,5.587,0,0,1-4.052-1.412,5.069,5.069,0,0,1-1.455-3.888c0-.876.029-1.741.087-2.571a24.913,24.913,0,0,1,.342-2.66,20.575,20.575,0,0,1,.639-2.618,11.965,11.965,0,0,1,.994-2.252,7.74,7.74,0,0,1,1.353-1.773,5.384,5.384,0,0,1,1.759-1.094,6.3,6.3,0,0,1,2.157-.416c.1.051.267.148.544.329.563.367,1.212.786,1.93,1.244a13.572,13.572,0,0,0,3.1,1.383,12.315,12.315,0,0,0,7.719,0,13.587,13.587,0,0,0,3.1-1.384c.734-.469,1.365-.876,1.928-1.243.277-.18.448-.278.544-.329a6.308,6.308,0,0,1,2.158.416,5.392,5.392,0,0,1,1.759,1.094,7.719,7.719,0,0,1,1.353,1.773,11.925,11.925,0,0,1,.994,2.251,20.526,20.526,0,0,1,.639,2.618,25.123,25.123,0,0,1,.342,2.661h0c.058.827.087,1.692.088,2.57A5.068,5.068,0,0,1,34.806,267.331Zm0,0" transform="translate(0 -224.736)" fill="#28292c"/>
</svg>
