<svg id="success_1_" data-name="success (1)" xmlns="http://www.w3.org/2000/svg" width="63.674" height="63.675" viewBox="0 0 63.674 63.675">
  <path id="Path_106" data-name="Path 106" d="M31.837,0A31.837,31.837,0,1,0,63.675,31.837,31.873,31.873,0,0,0,31.837,0Zm0,61.226A29.388,29.388,0,1,1,61.226,31.837,29.423,29.423,0,0,1,31.837,61.226Z" fill="#007588"/>
  <path id="Path_107" data-name="Path 107" d="M44.146,15.412,25.326,36.583l-11.338-9.07a1.224,1.224,0,0,0-1.529,1.913l12.245,9.8a1.226,1.226,0,0,0,1.681-.143L45.978,17.038a1.225,1.225,0,0,0-1.832-1.626Z" transform="translate(2.694 3.368)" fill="#007588"/>
</svg>
