<svg xmlns="http://www.w3.org/2000/svg" width="29.443" height="27.215" viewBox="0 0 29.443 27.215">
  <g id="upload" transform="translate(0)">
    <g id="Group_334" data-name="Group 334">
      <path id="Path_357" data-name="Path 357" d="M23.946,25.508a8.529,8.529,0,0,0-15.8-2.834,4.886,4.886,0,0,0-.9-.085,4.674,4.674,0,0,0-4.668,4.668,5.1,5.1,0,0,0,.1.969A6.5,6.5,0,0,0,0,33.464a6.945,6.945,0,0,0,1.762,4.6,6.288,6.288,0,0,0,4.359,2.192h5.255a.817.817,0,1,0,0-1.635H6.194a5.155,5.155,0,0,1-4.559-5.159,4.853,4.853,0,0,1,2.4-4.178.824.824,0,0,0,.357-.993,2.966,2.966,0,0,1-.182-1.041,3.039,3.039,0,0,1,3.033-3.033,2.981,2.981,0,0,1,1.035.182.821.821,0,0,0,1.023-.418,6.893,6.893,0,0,1,13.1,2.27.816.816,0,0,0,.678.727,5.892,5.892,0,0,1-.557,11.637H18.061a.817.817,0,0,0,0,1.635h4.553a7.244,7.244,0,0,0,4.856-2.4,7.536,7.536,0,0,0-3.524-12.339Z" transform="translate(0 -18.4)" fill="#28292c"/>
      <path id="Path_358" data-name="Path 358" d="M168.274,191.128a.815.815,0,0,0,0-1.156l-4.329-4.329a.827.827,0,0,0-.575-.242.8.8,0,0,0-.575.242l-4.329,4.329a.82.82,0,0,0,.575,1.4.8.8,0,0,0,.575-.242l2.937-2.936v13.5a.817.817,0,1,0,1.635,0v-13.5l2.937,2.936A.808.808,0,0,0,168.274,191.128Z" transform="translate(-148.645 -175.289)" fill="#28292c"/>
    </g>
  </g>
</svg>
