<svg xmlns="http://www.w3.org/2000/svg" width="47.998" height="48.068" viewBox="0 0 47.998 48.068">
  <g id="phone-call" transform="translate(-0.344 0)">
    <g id="Group_334" data-name="Group 334" transform="translate(0.344 0)">
      <path id="Path_337" data-name="Path 337" d="M38.3,54.4a4.728,4.728,0,0,0-3.429-1.572,4.889,4.889,0,0,0-3.47,1.562l-3.206,3.2c-.264-.142-.528-.274-.781-.406-.365-.183-.71-.355-1-.538a34.843,34.843,0,0,1-8.349-7.609,20.556,20.556,0,0,1-2.739-4.322c.832-.761,1.6-1.552,2.354-2.313.284-.284.568-.578.852-.862a4.655,4.655,0,0,0,0-7.02l-2.77-2.77c-.314-.314-.639-.639-.943-.964-.609-.629-1.248-1.278-1.907-1.887a4.8,4.8,0,0,0-3.4-1.491A4.969,4.969,0,0,0,6.057,28.9l-.02.02L2.588,32.4a7.422,7.422,0,0,0-2.2,4.717,17.784,17.784,0,0,0,1.3,7.528A43.682,43.682,0,0,0,9.446,57.588a47.742,47.742,0,0,0,15.9,12.448,24.769,24.769,0,0,0,8.928,2.638c.213.01.436.02.639.02a7.644,7.644,0,0,0,5.854-2.516c.01-.02.03-.03.041-.051a23.063,23.063,0,0,1,1.775-1.836c.436-.416.883-.852,1.319-1.309a5.061,5.061,0,0,0,1.532-3.51,4.876,4.876,0,0,0-1.562-3.48ZM41.93,65.085c-.01,0-.01.01,0,0-.4.426-.8.812-1.238,1.238a26.676,26.676,0,0,0-1.958,2.029,4.891,4.891,0,0,1-3.815,1.613c-.152,0-.314,0-.467-.01A22,22,0,0,1,26.54,67.58,45.065,45.065,0,0,1,11.566,55.853a41.187,41.187,0,0,1-7.3-12.164,14.485,14.485,0,0,1-1.136-6.351,4.657,4.657,0,0,1,1.4-3.013l3.459-3.459a2.306,2.306,0,0,1,1.542-.72,2.17,2.17,0,0,1,1.481.71l.03.03c.619.578,1.207,1.177,1.826,1.816.314.325.639.649.964.984l2.77,2.77a1.936,1.936,0,0,1,0,3.145c-.294.294-.578.588-.872.872-.852.872-1.664,1.684-2.546,2.475-.02.02-.041.03-.051.051a2.069,2.069,0,0,0-.528,2.3l.03.091a22.235,22.235,0,0,0,3.277,5.346l.01.01a37.236,37.236,0,0,0,9.009,8.2,13.851,13.851,0,0,0,1.248.68c.365.183.71.355,1,.538.041.02.081.051.122.071a2.2,2.2,0,0,0,1,.254,2.169,2.169,0,0,0,1.542-.7l3.47-3.47a2.3,2.3,0,0,1,1.532-.761,2.066,2.066,0,0,1,1.461.741l.02.02,5.59,5.59A2.006,2.006,0,0,1,41.93,65.085Z" transform="translate(-0.344 -24.626)" fill="#28292c"/>
      <path id="Path_338" data-name="Path 338" d="M246.071,88.642A13.056,13.056,0,0,1,256.7,99.274a1.361,1.361,0,0,0,1.349,1.136,1.812,1.812,0,0,0,.233-.02,1.371,1.371,0,0,0,1.126-1.583,15.788,15.788,0,0,0-12.864-12.864,1.377,1.377,0,0,0-1.583,1.116A1.355,1.355,0,0,0,246.071,88.642Z" transform="translate(-220.129 -77.208)" fill="#28292c"/>
      <path id="Path_339" data-name="Path 339" d="M271.549,21.2A26,26,0,0,0,250.366.021a1.368,1.368,0,1,0-.446,2.7A23.22,23.22,0,0,1,268.85,21.65a1.361,1.361,0,0,0,1.349,1.136,1.811,1.811,0,0,0,.233-.02A1.344,1.344,0,0,0,271.549,21.2Z" transform="translate(-223.572 0)" fill="#28292c"/>
    </g>
  </g>
</svg>
